<?xml version="1.0" standalone="no"?><!DOCTYPE svg PUBLIC "-//W3C//DTD SVG 1.1//EN" "http://www.w3.org/Graphics/SVG/1.1/DTD/svg11.dtd"><svg t="1742885570859" class="icon" viewBox="0 0 1077 1024" version="1.1" xmlns="http://www.w3.org/2000/svg" p-id="10807" data-spm-anchor-id="a313x.search_index.0.i15.7cd43a81cQBftJ" xmlns:xlink="http://www.w3.org/1999/xlink" width="210.3515625" height="200"><path d="M790.45614 736.561404m-287.438596 0a287.438596 287.438596 0 1 0 574.877193 0 287.438596 287.438596 0 1 0-574.877193 0Z" fill="#a4dec7" p-id="10808" data-spm-anchor-id="a313x.search_index.0.i19.7cd43a81cQBftJ" class=""></path><path d="M910.291088 358.040702c-97.324912-27.773754-229.286175-48.559158-368.280702-41.624702h-41.705544c48.631018-69.398456 97.31593-131.862456 145.92-180.412632 76.458667-69.416421 111.202807-76.350877 125.089684-69.416421 13.886877 6.952421 27.800702 69.389474-6.952421 187.365053l69.470316 20.812351c41.768421-138.760982 34.78007-235.897263-20.839298-263.662035-34.717193-20.839298-97.262035-20.839298-208.437895 76.350877-69.479298 55.475649-132.02414 138.752-194.56 228.989754-27.800702 6.916491-48.666947 6.916491-76.458667 13.850948-48.64-138.778947-48.64-222.028351-27.773754-235.942176 13.886877-6.925474 69.479298 6.925474 159.81586 97.163228l48.631017-48.586105C409.986246 31.914667 326.575158-2.775579 271.018667 31.914667c-69.524211 34.699228-55.619368 159.600281-6.961404 305.313684-34.771088 6.916491-62.53586 13.877895-90.336561 20.839298C27.791719 399.683368 0 455.168 0 496.846596c0 62.437053 76.458667 117.939649 215.399298 152.638878l13.886877-69.362527C118.110316 552.358175 69.470316 517.658947 69.470316 503.745123c0-13.850947 27.827649-41.624702 125.089684-76.288 27.791719-6.988351 62.544842-13.913825 97.324912-20.812351 6.925474 20.812351 20.812351 48.523228 34.690246 76.288-41.678596 83.303298-76.395789 166.552702-90.309614 242.903579-34.78007 145.713404 0 201.216 34.726175 222.055298 13.904842 6.934456 27.818667 13.886877 41.705544 13.886877 48.631018 0 118.128281-41.624702 194.56-118.002526l-48.631017-48.550175C375.215158 885.427649 319.649684 899.323509 305.762807 892.362105c-13.904842-6.934456-27.791719-41.624702 0-145.713403 6.934456-62.464 27.773754-124.928 55.565474-194.317474 6.952421 13.877895 13.886877 20.812351 20.866245 34.717193C451.691789 705.032982 528.096561 809.085754 604.546246 878.484211c76.458667 69.416421 125.089684 90.228772 166.76828 90.228771 20.839298 0 34.753123-6.925474 41.678597-13.877894 55.592421-34.699228 62.544842-124.901053 20.839298-256.763509-20.839298-69.389474-55.529544-152.665825-97.235088-229.007719l-55.592421 34.690245c41.678596 76.377825 69.470316 152.665825 90.309614 215.129825 34.753123 117.975579 20.839298 173.487158 6.961404 180.439579-13.913825 6.925474-48.64 0-125.089684-69.389474-69.470316-62.464-145.928982-166.579649-208.446878-277.593824-20.839298-27.773754-34.78007-48.586105-41.705543-76.32393 6.952421-20.812351 20.866246-41.624702 34.753122-62.464 6.952421-6.925474 13.904842-20.812351 13.904842-27.737825h90.318597c132.015158 0 257.104842 13.877895 347.441403 41.624702 97.297965 27.764772 125.089684 62.464 125.089685 76.314947 0 20.839298-41.705544 55.538526-166.795228 83.303299l13.913824 69.371508c145.928982-34.699228 215.399298-90.210807 215.399298-152.674807 6.952421-48.577123-27.773754-104.061754-166.76828-145.713403z m-548.962807 41.651649c0-6.961404 0-6.961404 6.952421-6.961404l-6.952421 6.961404z m111.202807 97.127298c0 55.538526 41.678596 97.163228 97.271017 97.163228 55.592421 0 97.297965-41.651649 97.297965-97.163228 0-55.538526-41.705544-104.061754-97.324912-104.061754-55.565474 0-97.24407 48.523228-97.24407 104.061754z m125.089684 0c0 13.886877-13.904842 27.764772-27.818667 27.764772-13.886877 0-27.791719-13.877895-27.791719-27.755789 0-13.89586 13.904842-27.773754 27.755789-27.773755 13.949754 0 27.827649 6.952421 27.82765 27.764772h0.026947z" fill="#14E08D" p-id="10809" data-spm-anchor-id="a313x.search_index.0.i16.7cd43a81cQBftJ" class=""></path></svg>