<?xml version="1.0" standalone="no"?><!DOCTYPE svg PUBLIC "-//W3C//DTD SVG 1.1//EN" "http://www.w3.org/Graphics/SVG/1.1/DTD/svg11.dtd"><svg t="1742886287710" class="icon" viewBox="0 0 1024 1024" version="1.1" xmlns="http://www.w3.org/2000/svg" p-id="17849" xmlns:xlink="http://www.w3.org/1999/xlink" width="200" height="200"><path d="M754.24 960H360.96a18.624 18.624 0 0 1-13.12-5.376 17.28 17.28 0 0 1-5.184-12.8c0.64-21.696 1.408-45.44-0.64-56.128-4.544-23.744-92.16-16-103.296-16.896-7.68-0.64-34.24-3.84-51.328-17.984-9.216-7.68-13.184-22.144-14.72-36.48-0.96-9.536-8.512-166.912-8.512-166.912l-57.792-3.52a18.816 18.816 0 0 1-9.792-3.456C75.008 624.896 64 610.688 64 598.144c0-6.272 0-14.848 113.92-178.624-1.28-14.592-4.48-51.776-5.888-81.408-1.344-28.032 51.712-123.072 114.752-178.496 49.28-43.264 136.32-54.4 183.808-57.152a18.112 18.112 0 0 1 19.328 16.576 17.92 17.92 0 0 1-17.152 18.624c-42.688 2.56-120.32 12.032-161.28 48-59.2 52.032-102.016 135.232-102.912 151.168 1.792 36.416 6.336 85.312 6.4 85.76a17.28 17.28 0 0 1-3.072 11.392c-46.848 67.264-97.408 142.336-109.632 163.968 2.752 3.072 7.36 7.296 12.096 11.072l68.416 4.16a17.92 17.92 0 0 1 17.088 16.64s6.08 118.4 9.856 170.624c0.96 13.888 1.6 19.84 6.08 24.32 6.848 6.912 16 8.768 26.24 8.832 47.168 0.384 130.752-6.976 134.72 40.32 0.64 8.128 3.2 29.376 2.88 50.752h356.224v-141.696a80.832 80.832 0 0 1 19.2-56.96c6.208-7.168 14.08-11.52 21.696-15.808 19.712-11.008 44.288-24.768 57.088-100.224 2.304-13.568 6.912-91.2 9.536-139.968a17.92 17.92 0 0 1 19.2-16.768 17.92 17.92 0 0 1 17.28 18.56c-0.64 12.608-6.528 123.968-9.92 143.872-15.616 91.904-51.2 111.872-74.88 125.056a52.352 52.352 0 0 0-12.096 8c-11.904 13.632-10.56 31.808-10.56 32l0.064 1.536v160.064a17.92 17.92 0 0 1-18.24 17.664z m-62.976-258.176c-48.64 0-88.192-38.144-88.192-85.056 0-25.344 11.52-48.128 29.824-63.744l-156.544-62.016a66.944 66.944 0 0 1-56 29.632c-36.544 0-66.304-28.672-66.304-64 0-35.264 29.76-64 66.304-64 13.504 0 26.112 3.904 36.544 10.624L582.4 239.04c-38.4-10.88-66.688-45.184-66.688-85.76 0-49.28 41.6-89.28 92.608-89.28s92.544 40.064 92.544 89.28c0 31.36-16.832 58.88-42.24 74.88l197.76 112.384a55.04 55.04 0 0 1 48.96-29.376c30.208 0 54.72 23.68 54.72 52.8 0 29.056-24.512 52.736-54.72 52.736a55.36 55.36 0 0 1-41.6-18.56L719.872 536.32c34.56 11.52 59.52 43.2 59.52 80.448 0 46.912-39.488 85.12-88.128 85.12z m-10.24-133.76a50.368 50.368 0 0 0-41.344 48.704c0 27.52 23.168 49.792 51.584 49.792 28.48 0 51.584-22.336 51.584-49.792 0-27.456-23.104-49.728-51.584-49.728a54.144 54.144 0 0 0-10.24 0.96zM486.656 456.96l166.976 66.176-47.936-255.232-124.544 163.136a61.76 61.76 0 0 1 5.504 25.6v0.32z m154.624-197.76l48.128 256.512 149.76-143.936-197.888-112.512zM420.416 428.032a29.312 29.312 0 0 0-29.76 28.672c0 15.872 13.312 28.736 29.76 28.736a29.312 29.312 0 0 0 29.76-28.736 29.312 29.312 0 0 0-29.76-28.672z m484.928-81.472a17.792 17.792 0 0 0-18.112 17.472c0 9.6 8.128 17.472 18.112 17.472a17.792 17.792 0 0 0 18.112-17.472 17.792 17.792 0 0 0-18.112-17.472zM608.256 99.2c-30.848 0-56 24.256-56 54.016 0 29.76 25.152 54.016 56 54.016a56.96 56.96 0 0 0 6.592-0.384 54.784 54.784 0 0 0 49.408-53.632c0-29.76-25.152-54.016-56-54.016z" fill="#14E08D" p-id="17850"></path></svg>