<?xml version="1.0" standalone="no"?><!DOCTYPE svg PUBLIC "-//W3C//DTD SVG 1.1//EN" "http://www.w3.org/Graphics/SVG/1.1/DTD/svg11.dtd"><svg t="1742885769752" class="icon" viewBox="0 0 1024 1024" version="1.1" xmlns="http://www.w3.org/2000/svg" p-id="12198" xmlns:xlink="http://www.w3.org/1999/xlink" width="200" height="200"><path d="M959.947779 667.156697v184.30931A172.022023 172.022023 0 0 1 788.693712 1024H235.509796A172.226811 172.226811 0 0 1 63.999744 851.466007v-184.30931a450.892248 450.892248 0 0 1 174.837859-356.843303L186.616632 218.670709a85.422246 85.422246 0 0 1-74.491679-43.517476 89.287621 89.287621 0 0 1 30.974203-120.313022 84.116721 84.116721 0 0 1 116.985215 31.486174 90.567547 90.567547 0 0 1 0.51197 88.058893l50.941046 89.594803a443.724664 443.724664 0 0 1 409.320259 4.351748l53.756882-94.202536a90.081175 90.081175 0 0 1 0.255985-87.802908 84.4751 84.4751 0 0 1 117.241201-31.486174 89.210826 89.210826 0 0 1 30.718218 120.313022 85.959814 85.959814 0 0 1-74.49168 43.517476l-55.548778 97.530343A450.892248 450.892248 0 0 1 959.947779 667.156697zM511.973762 302.377854A363.908493 363.908493 0 0 0 149.75477 667.156697v184.565295a85.985413 85.985413 0 0 0 85.755026 86.011011h553.183916a85.934216 85.934216 0 0 0 85.499041-86.011011v-184.565295A363.908493 363.908493 0 0 0 511.973762 302.377854z m144.375626 354.283452a42.877513 42.877513 0 0 1-42.749521-43.005506v-45.565357a42.877513 42.877513 0 1 1 85.755026 0v45.565357a43.1079 43.1079 0 0 1-43.005505 43.005506z m-15.87108 168.182245v1.535911a42.877513 42.877513 0 0 1-42.74952 43.005506h-171.510053a42.877513 42.877513 0 0 1-42.74952-43.005506v-1.535911a43.1079 43.1079 0 0 1 42.74952-43.261491h171.510053a43.1079 43.1079 0 0 1 42.74952 43.261491z m-272.880173-168.182245a43.1079 43.1079 0 0 1-43.005505-43.005506v-45.565357a42.877513 42.877513 0 1 1 85.755026 0v45.565357a42.877513 42.877513 0 0 1-42.749521 43.005506zM669.916601 165.425797l-105.209898 0.511971h-0.51197a42.672725 42.672725 0 0 1-32.25413-14.847139L499.174504 113.460811l-23.294649 33.79004a42.570331 42.570331 0 0 1-35.325951 18.686917h-75.259635a43.133498 43.133498 0 0 1 0-86.266997h52.988927L460.264761 18.746305A42.365543 42.365543 0 0 1 493.03086 0.059389a43.005506 43.005506 0 0 1 34.813981 14.847138l55.804763 64.764244 85.755027-0.51197h0.255985a42.544732 42.544732 0 0 1 43.005505 42.74952 43.159097 43.159097 0 0 1-42.74952 43.517476z" fill="#14E08D" p-id="12199"></path></svg>