<?xml version="1.0" standalone="no"?><!DOCTYPE svg PUBLIC "-//W3C//DTD SVG 1.1//EN" "http://www.w3.org/Graphics/SVG/1.1/DTD/svg11.dtd"><svg t="1742884900186" class="icon" viewBox="0 0 1284 1024" version="1.1" xmlns="http://www.w3.org/2000/svg" p-id="2897" xmlns:xlink="http://www.w3.org/1999/xlink" width="250.78125" height="200"><path d="M898.79110698 591.94717716l5.36322479-47.27318609 110.55115096 77.9621497 28.6272211-40.83731715-130.02046456-91.57503794 11.21965008-111.1278993-131.17530885-65.91780341-118.71861443 129.52591634-4.28923288 188.34755285h55.76944986l1.65074206-161.61767409 51.56241898-45.12789579-1.89734233 182.32537971 4.45498073 4.20837852-122.18180341 320.10095956 53.12961327 9.40585547 134.55764352-271.75782267 84.89256881 105.68382208 45.87039193 164.58766062h63.44236512l-42.1579093-200.64119662-100.64939778-146.27184179z m-0.57674832-266.97134816c34.23704614 0 61.9573709-27.72032476 61.95737093-61.87517083 0-34.23839377-27.71897713-61.95871852-61.95737093-61.95872034-34.23704614 0-61.9573709 27.72032476-61.95737275 61.95872034 0 34.15484604 27.71897713 61.87517077 61.95737275 61.87517082zM449.62778752 416.77725462l4.7797382-42.12422023 98.51219333 69.47396975 25.509006-36.39176796-115.86182168-81.60321338 9.99877539-99.02695608-116.89134532-58.73943829-105.79027777 115.42117508-3.82298123 167.83793647h49.69741608l1.46882262-144.01875013 45.94855103-40.21340535-1.68981968 162.47201644 3.96986406 3.74886699-108.87884864 285.24538835 47.3446051 8.3803766 119.90580189-242.16441298 75.64841639 94.17579881 40.8763948 146.66532489h56.53350819l-37.56682675-178.79211927-89.68982438-130.34522206z m-0.51341512-237.89943565c30.50839371 0 55.21021894-24.70047949 55.21021894-55.13745231 0-30.50839371-24.70047949-55.21021894-55.21021894-55.21021894s-55.21156658 24.70047949-55.2115666 55.21021894c0 30.43697284 24.70047949 55.13745228 55.2115666 55.13745231z" p-id="2898" fill="#14E08D"></path></svg>